<?xml version="1.0" encoding="utf-8"?>
<!-- Generator: Adobe Illustrator 28.3.0, SVG Export Plug-In . SVG Version: 6.00 Build 0)  -->
<svg version="1.1" id="Layer_1" xmlns="http://www.w3.org/2000/svg" xmlns:xlink="http://www.w3.org/1999/xlink" x="0px" y="0px"
	 viewBox="0 0 117 126" style="enable-background:new 0 0 117 126;" xml:space="preserve">
<style type="text/css">
	.st0{fill:#FFFFFF;}
</style>
<path class="st0" d="M22.1,47.1c1.6,1,1.1,23.9,1.2,30.5c-1.7,3.1-5.1,9.3-6.7,12.4c-1.7-3.1-5.1-9.3-6.7-12.4c0-6.8,0-20.6,0-27.4
	l1.8-3.5C13.1,41.9,20.8,43,22.1,47.1z"/>
<path class="st0" d="M143.1,93.3"/>
<path class="st0" d="M13.4,80.2"/>
<path class="st0" d="M49.9,97.5"/>
<path class="st0" d="M0,126c2.1-5.6,5.5-13.2,11.2-21.4c2.5-3.7,7.5-10.3,17.1-18.9C34.6,80,50.1,66.9,77.1,55
	c17.7-7.8,38.7-14.4,39.9-12c0.4,0.8-1.5,2.4-23.3,17.8C77.7,72.1,72.1,76,66.4,84c-4.1,5.8-6.3,11.2-7.8,14.7
	c-4.5,11-5.8,20.8-6.2,27.3"/>
<path class="st0" d="M88.2,15.8c1.3,0.8,0.9,17.6,1,22.5c-1.4,2.3-4.2,6.9-5.6,9.2c-1.4-2.3-4.2-6.9-5.6-9.2c0-5,0-15.2,0-20.2
	l1.5-2.5C80.7,11.9,87,12.7,88.2,15.8z"/>
</svg>
